<svg width="24" height="144" xmlns="http://www.w3.org/2000/svg" xmlns:xlink="http://www.w3.org/1999/xlink"><svg width="24" height="24" xmlns="http://www.w3.org/2000/svg"><defs><path d="M20.47 5a1.5 1.5 0 0 1 1.48 1.9l-1.83 6.52A3.58 3.58 0 0 1 16.66 16H8.93c-.94 0-1.76-.63-1.99-1.52L4.26 4H3.02C2.46 4 2 3.55 2 3s.46-1 1.02-1H5.1c.47 0 .88.31.99.76L6.65 5h13.82zM9 17.5a2 2 0 1 1 0 4 2 2 0 0 1 0-4zm8 0a2 2 0 1 1 0 4 2 2 0 0 1 0-4z" id="a"/></defs><g fill="none" fill-rule="evenodd"><path d="M0 0h24v24H0z"/><mask id="b" fill="#fff"><use xlink:href="#a"/></mask><use fill="#9FA6B0" xlink:href="#a"/><g mask="url(#b)" fill="#6C727C" fill-rule="nonzero"><path d="M1 1h22v22H1z"/></g></g></svg><svg width="24" height="24" y="24" xmlns="http://www.w3.org/2000/svg"><defs><path d="M12 14l10-4v8a2 2 0 0 1-2 2H4a2 2 0 0 1-2-2v-8l10 4zm0-2L2 8V6c0-1.1.9-2 2-2h16a2 2 0 0 1 2 2v2l-10 4z" id="c"/></defs><g fill="none" fill-rule="evenodd"><path d="M0 0h24v24H0z"/><mask id="d" fill="#fff"><use xlink:href="#c"/></mask><use fill="#9FA6B0" xlink:href="#c"/><g mask="url(#d)" fill="#6C727C" fill-rule="nonzero"><path d="M1 1h22v22H1z"/></g></g></svg><svg width="24" height="24" y="48" xmlns="http://www.w3.org/2000/svg"><defs><path d="M19 15v-4a7 7 0 0 0-5-6.71l-.02-.01L14 4a2 2 0 0 0-2-2 2 2 0 0 0-1.98 2.28l-.02.01A7 7 0 0 0 5 11v4a2 2 0 0 1-2 2v1.24a19.83 19.83 0 0 0 2.16.76c1.56.47 3.18.77 4.85.91L10 20a2 2 0 0 0 4 0v-.09c1.66-.14 3.3-.44 4.85-.91l.15-.04c.68-.21 1.35-.44 2-.72V17a2 2 0 0 1-2-2" id="e"/></defs><g fill="none" fill-rule="evenodd"><path d="M0 0h24v24H0z"/><mask id="f" fill="#fff"><use xlink:href="#e"/></mask><use fill="#9FA6B0" xlink:href="#e"/><g mask="url(#f)" fill="#6C727C" fill-rule="nonzero"><path d="M1 1h22v22H1z"/></g></g></svg><svg width="24" height="24" y="72" xmlns="http://www.w3.org/2000/svg"><defs><path d="M9 4H8a1 1 0 0 0-1 1v14a1 1 0 0 0 1 1h8a1 1 0 0 0 1-1V5a1 1 0 0 0-1-1h-1a2 2 0 0 1-2 2h-2a2 2 0 0 1-2-2zM8 2h8a3 3 0 0 1 3 3v14a3 3 0 0 1-3 3H8a3 3 0 0 1-3-3V5a3 3 0 0 1 3-3z" id="g"/></defs><g fill="none" fill-rule="evenodd"><path d="M0 0h24v24H0z"/><mask id="h" fill="#fff"><use xlink:href="#g"/></mask><use fill="#9FA6B0" xlink:href="#g"/><g mask="url(#h)" fill="#6C727C" fill-rule="nonzero"><path d="M1 1h22v22H1z"/></g></g></svg><svg width="24" height="24" y="96" xmlns="http://www.w3.org/2000/svg"><g fill="none" fill-rule="evenodd"><path d="M0 0h24v24H0z"/><path d="M12 16a4 4 0 1 1 0-8 4 4 0 0 1 0 8m9.372-5.252l-1.592-.638c-.2-.81-.52-1.58-.94-2.27l.675-1.578a1 1 0 0 0-.213-1.1l-.464-.464a1.001 1.001 0 0 0-1.1-.213l-1.578.675c-.69-.42-1.46-.74-2.27-.94l-.638-1.592A1.001 1.001 0 0 0 12.323 2h-.646c-.409 0-.777.249-.929.628L10.11 4.22c-.81.2-1.58.52-2.27.94l-1.578-.675a1.001 1.001 0 0 0-1.1.213l-.464.464a1 1 0 0 0-.213 1.1L5.16 7.84c-.42.69-.74 1.46-.94 2.27l-1.592.638c-.379.152-.628.52-.628.929v.646c0 .409.249.777.628.929l1.592.638c.2.81.52 1.58.94 2.27l-.675 1.578c-.16.375-.076.811.213 1.1l.464.464c.289.289.725.373 1.1.213l1.578-.675c.69.42 1.46.74 2.27.94l.638 1.592c.152.379.52.628.929.628h.646c.409 0 .777-.249.929-.628l.638-1.592c.81-.2 1.58-.52 2.27-.94l1.578.675c.375.16.811.076 1.1-.213l.464-.464c.289-.289.373-.725.213-1.1l-.675-1.578c.42-.69.74-1.46.94-2.27l1.592-.638c.379-.152.628-.52.628-.929v-.646c0-.409-.249-.777-.628-.929" fill="#6C727C" fill-rule="nonzero"/></g></svg><svg width="24" height="24" y="120" xmlns="http://www.w3.org/2000/svg"><g fill="none" fill-rule="evenodd"><path d="M0 24h24V0H0z"/><path d="M8.172 8.761L12 12.59l3.827-3.829c.509-.508 1.326-.521 1.815-.032.49.49.475 1.306-.033 1.814l-4.718 4.719c-.49.49-1.292.49-1.782 0L6.39 10.543c-.508-.508-.521-1.324-.032-1.814.49-.49 1.306-.476 1.814.032" fill="#6C727C" fill-rule="nonzero"/></g></svg></svg>